<svg xmlns="http://www.w3.org/2000/svg" viewBox="0 0 554.56 365.01"><defs><style>.cls-1{fill:#fff;}</style></defs><g id="Layer_2" data-name="Layer 2"><g id="Layer_1-2" data-name="Layer 1"><polygon class="cls-1" points="402.94 0.01 210.48 0.01 175.26 61.01 341.94 61.01 402.94 0.01"/><polygon class="cls-1" points="250.25 52.57 197.42 22.07 0 364.01 70.44 364.01 250.25 52.57"/><polygon class="cls-1" points="327.24 140.66 284.11 183.8 465.32 365.01 551.59 365.01 327.24 140.66"/><polygon class="cls-1" points="326.39 141.58 369.71 184.89 554.56 0.04 467.93 0.04 326.39 141.58"/><rect class="cls-1" x="368.45" y="135.55" width="61.52" height="240.42" transform="translate(-63.92 357.19) rotate(-45)"/><polygon class="cls-1" points="160.81 303 125.29 364.52 282.45 364.52 282.45 303 160.81 303"/><polygon class="cls-1" points="55.74 0 21.53 61.52 114.04 61.52 148.25 0 55.74 0"/></g></g></svg>